<svg width="500" height="500" viewBox="0 0 500 500" fill="none" xmlns="http://www.w3.org/2000/svg">
<path d="M436.598 150.897L380.998 58.1969L306.898 25.4969L250.298 25.4969L193.598 25.2969L118.998 58.2969L64.3984 150.997C64.3984 150.997 90.6984 177.397 125.898 183.297L119.998 464.297C119.998 464.297 194.698 471.997 248.098 471.997C248.098 471.997 249.998 471.997 251.898 471.997C305.298 471.997 379.998 464.297 379.998 464.297L374.098 183.197C409.298 177.297 436.598 150.897 436.598 150.897Z" fill="white"/>
<path d="M249.998 34.1L118.998 58.2L64.3984 150.9C64.3984 150.9 91.3984 177.7 126.598 183.6L119.998 464.3C119.998 464.3 194.698 472 248.098 472C248.098 472 249.998 472 251.898 472C305.298 472 379.998 464.3 379.998 464.3L374.098 183.2C409.198 177.3 436.598 150.9 436.598 150.9L380.998 58.2L249.998 34.1Z" stroke="#231815" stroke-width="2" stroke-miterlimit="10"/>
<path d="M121.898 454.898C121.898 454.898 196.198 461.398 250.298 461.398C304.498 461.398 378.698 454.898 378.698 454.898" stroke="#231815" stroke-width="0.5" stroke-miterlimit="10" stroke-dasharray="2 2"/>
<path d="M121.898 452.102C121.898 452.102 196.198 458.602 250.298 458.602C304.498 458.602 378.698 452.102 378.698 452.102" stroke="#231815" stroke-width="0.5" stroke-miterlimit="10" stroke-dasharray="2 2"/>
</svg>
